PathFileType	4	(X/Y/Z)	./resultDataOpenSim/trcMotMarkerGrf/sub06/qtm-13-08.trc
DataRate	CameraRate	NumFrames	NumMarkers	Units	OrigDataRate	OrigDataStartFrame	OrigNumFrames
250.000000	250.000000	13	24	m	250.000000	327	523
Frame#	Time	L.Toe.Tip			R.Toe.Tip			L.Ankle.Lat			R.Ankle.Lat			L.Ankle.Med			R.Ankle.Med			L.Heel			R.Heel			L.Knee.Lat			R.Knee.Lat			L.Knee.Med			R.Knee.Med			L.Thigh.Upper			R.Thigh.Upper			L.ASIS			R.ASIS			V.Sacral			L.Acromium			R.Acromium			C7			L.Elbow			R.Elbow			L.Wrist.Lat			R.Wrist.Lat
		X1	Y1	Z1	X2	Y2	Z2	X3	Y3	Z3	X4	Y4	Z4	X5	Y5	Z5	X6	Y6	Z6	X7	Y7	Z7	X8	Y8	Z8	X9	Y9	Z9	X10	Y10	Z10	X11	Y11	Z11	X12	Y12	Z12	X13	Y13	Z13	X14	Y14	Z14	X15	Y15	Z15	X16	Y16	Z16	X17	Y17	Z17	X18	Y18	Z18	X19	Y19	Z19	X20	Y20	Z20	X21	Y21	Z21	X22	Y22	Z22	X23	Y23	Z23	X24	Y24	Z24

327	1.304	0.3440806	0.076179599	-0.042506573	0.91271852	0.035565203	0.11151964	0.35454937	0.20543994	-0.07856052	0.77581585	0.060474538	0.12935898	0.37581048	0.21333154	0.0037562503	0.79798712	0.079748751	0.042411016	0.31160968	0.26651263	-0.030503956	0.72238999	0.038742108	0.068852563	0.69311854	0.36718516	-0.11993161	0.85731814	0.43794445	0.16319585	0.70145912	0.35828516	0.0019458649	0.81867175	0.42696272	0.041886401	0.65356369	0.7588458	-0.11217173	0.71686834	0.78820741	0.22581657	0.73568433	0.81390246	-0.084289737	0.78578617	0.83963236	0.15278419	0.5772555	0.8987066	0.068503079	0.69456042	1.3121922	-0.12840758	0.70563825	1.2833323	0.23278677	0.62643883	1.3397714	0.055527919	0.69943503	0.98456605	-0.20318203	0.6040479	0.98301105	0.28977431	0.93854325	0.90750496	-0.17135513	0.71352963	0.77625903	0.35480116
328	1.308	0.35772005	0.079202885	-0.042295268	0.91268317	0.035558752	0.11165339	0.36729412	0.20845677	-0.078480276	0.77576517	0.060484228	0.12942413	0.38854738	0.21649495	0.0036909835	0.79808818	0.079848402	0.042481971	0.32403333	0.26938742	-0.030888297	0.7224177	0.03886617	0.068633479	0.70570981	0.36951315	-0.1203434	0.85892233	0.43779407	0.16363439	0.71414997	0.36057809	0.0016608823	0.82108781	0.42738149	0.041992077	0.66007496	0.76096125	-0.11199518	0.72136175	0.78914015	0.22635823	0.74186308	0.81609348	-0.083999839	0.79131089	0.84080169	0.15381052	0.58418397	0.89941522	0.071589976	0.69989313	1.3140661	-0.12846358	0.71160041	1.2854861	0.23276604	0.6324952	1.3413407	0.055325465	0.70331754	0.98643886	-0.20248214	0.6126012	0.9839474	0.29027762	0.94079925	0.90487963	-0.17177942	0.72674663	0.77920913	0.35418753
329	1.312	0.37152517	0.082029942	-0.042130457	0.9126511	0.035553153	0.11177135	0.38010353	0.21128673	-0.078436649	0.77572913	0.060500508	0.12948777	0.40138033	0.21946768	0.0036056506	0.79818525	0.079958379	0.04256637	0.33654129	0.27202608	-0.031254091	0.72243367	0.03900108	0.068519833	0.71821977	0.37196497	-0.1206778	0.86040973	0.4376448	0.16403345	0.72667943	0.36292081	0.0014332046	0.82337114	0.42781889	0.042071045	0.66652155	0.763069	-0.11177266	0.72582267	0.79010415	0.22683955	0.74805718	0.81824915	-0.083797238	0.796774	0.84199506	0.15484293	0.58950325	0.90067796	0.074970345	0.70524734	1.3159468	-0.12849803	0.71757415	1.2876737	0.23273383	0.63847215	1.3429764	0.055169637	0.7071226	0.9883357	-0.2017696	0.62091878	0.98495242	0.29070978	0.94289531	0.90229462	-0.1722673	0.73993082	0.78235499	0.35348118
330	1.316	0.38549072	0.084662365	-0.042020974	0.91262073	0.035547315	0.11187165	0.39302993	0.2139252	-0.078470619	0.77570831	0.060516321	0.12954467	0.41429336	0.22224894	0.0034940878	0.79827002	0.080083751	0.042660928	0.34904292	0.27442752	-0.031424368	0.72243697	0.039144346	0.06848834	0.73066969	0.37452954	-0.12094981	0.86175777	0.43749673	0.16438254	0.73912624	0.3653145	0.0012487609	0.82541587	0.42826044	0.042183401	0.67291833	0.76518063	-0.11148609	0.73025476	0.79109792	0.22725923	0.75423166	0.82038351	-0.083661146	0.80223381	0.8432683	0.15590118	0.59314063	0.90295107	0.077189002	0.71061564	1.3178234	-0.12849764	0.7235632	1.2898925	0.23269101	0.6443026	1.3447381	0.055137088	0.71086887	0.99026701	-0.20108182	0.62914396	0.9860557	0.29112772	0.94483407	0.89974376	-0.17282643	0.75307906	0.78569047	0.35268353
331	1.32	0.39962349	0.08710442	-0.041975783	0.91259158	0.035541339	0.11195299	0.40608069	0.21636945	-0.078575233	0.775695	0.060533607	0.12959083	0.42727667	0.22483348	0.0033636901	0.79833653	0.080223381	0.042754863	0.36149006	0.27659617	-0.031360413	0.72243522	0.039290055	0.068487334	0.74308731	0.37720344	-0.12118891	0.86296297	0.4373748	0.16466288	0.75153337	0.36778044	0.0011133558	0.82720306	0.42869863	0.04234735	0.67932257	0.76734864	-0.11116073	0.73467923	0.79212091	0.22763916	0.76036163	0.82250972	-0.083540788	0.80769952	0.8446357	0.15698522	0.59619376	0.90603383	0.07755639	0.71599903	1.3196931	-0.12847404	0.72956547	1.2921389	0.23263705	0.65001709	1.3465881	0.055188557	0.71456315	0.99223414	-0.20043964	0.63737836	0.98726067	0.29156728	0.9466205	0.89722161	-0.17345423	0.76617815	0.78919663	0.35178832
332	1.324	0.41393526	0.089355952	-0.042006183	0.91256405	0.035535482	0.11201695	0.41919184	0.21862242	-0.078690335	0.77567932	0.06056082	0.1296247	0.44032846	0.2272166	0.0032315898	0.79838492	0.080371534	0.042839625	0.37390216	0.27853133	-0.031185791	0.722437	0.039434064	0.068483588	0.75547234	0.37998451	-0.12140816	0.86407628	0.43731758	0.16488855	0.76393436	0.37034417	0.0010249519	0.8287852	0.42913123	0.042531539	0.68577938	0.76958672	-0.11082131	0.73913977	0.7931804	0.22801191	0.76644855	0.82461951	-0.08340104	0.81314761	0.8460763	0.15807686	0.60036007	0.90911269	0.076357957	0.72139408	1.3215567	-0.12844333	0.7355737	1.2944038	0.23257007	0.65567482	1.3484635	0.055256133	0.71820099	0.99423547	-0.19983854	0.64562078	0.98854099	0.2920235	0.94826313	0.89472986	-0.17414311	0.77920619	0.7928535	0.35078842
333	1.328	0.42842834	0.09141335	-0.042127919	0.91253862	0.035529858	0.11206686	0.43228655	0.22069489	-0.078762359	0.77565103	0.060607675	0.12965154	0.45345107	0.22939567	0.0031116248	0.798422	0.080520792	0.042909945	0.38632766	0.2802123	-0.031024966	0.72244671	0.039575233	0.068467419	0.76781306	0.38286624	-0.12160586	0.86520424	0.43734145	0.16513415	0.77635	0.37302425	0.00097353434	0.83025007	0.42955403	0.04267793	0.69229628	0.77181955	-0.11047432	0.74370505	0.79428949	0.22839419	0.77256905	0.82670635	-0.083186973	0.81856409	0.84756773	0.15915405	0.60684493	0.91135395	0.074507137	0.72679798	1.3234122	-0.1284124	0.74158415	1.2966755	0.23249018	0.66132014	1.3503186	0.055306712	0.72177821	0.99626952	-0.19926463	0.65384109	0.98987263	0.2924841	0.94976952	0.89227731	-0.17489128	0.7921571	0.79665554	0.34969217
334	1.332	0.44309865	0.093276053	-0.042356663	0.91251522	0.035525048	0.11210583	0.44534131	0.22259669	-0.078785248	0.77559325	0.060682318	0.12968649	0.46664491	0.23136648	0.0030081571	0.7984584	0.080664942	0.04296011	0.39880108	0.28161349	-0.030889583	0.72246314	0.039715418	0.068442366	0.78010531	0.38584037	-0.12177708	0.86641732	0.43743062	0.16544726	0.78878295	0.37583057	0.00094994338	0.83165363	0.4299513	0.0427536	0.69887115	0.77397894	-0.11014075	0.74847128	0.7954641	0.22877649	0.77888566	0.82878148	-0.082811151	0.8239579	0.84910291	0.1601954	0.61488872	0.91273445	0.073018485	0.73221483	1.3252533	-0.12837833	0.74760027	1.2989462	0.23240107	0.66697537	1.3521355	0.055341495	0.72530133	0.9983323	-0.19871577	0.66204757	0.9912518	0.29295814	0.95114649	0.88987397	-0.17569832	0.80504524	0.80061214	0.34852355
335	1.336	0.45795073	0.094950318	-0.042701043	0.91249346	0.035521853	0.1121369	0.45838353	0.22432563	-0.078779152	0.77549251	0.060787102	0.12974382	0.4799042	0.23312253	0.0029197439	0.79850074	0.080801945	0.042986215	0.41131922	0.28273373	-0.030711125	0.72248036	0.039861302	0.06841454	0.79234936	0.38890307	-0.1219217	0.86766247	0.43755309	0.16576119	0.80120801	0.37876513	0.0009523857	0.83298747	0.43029786	0.042767831	0.70552342	0.77610468	-0.10989927	0.75350888	0.79671258	0.22913145	0.7854934	0.83085516	-0.082240933	0.8293518	0.85068431	0.16118262	0.62266874	0.91386307	0.072311142	0.73765051	1.3270718	-0.12833711	0.75362525	1.3012114	0.23230696	0.67263784	1.3539243	0.05537313	0.72879267	1.0004164	-0.19820578	0.67029857	0.99268735	0.29347681	0.95240799	0.88752506	-0.17655511	0.81788216	0.8047329	0.34730113
336	1.34	0.47299646	0.096447696	-0.043158019	0.91247352	0.03551992	0.11216407	0.47145377	0.22586576	-0.078761578	0.77537252	0.060909687	0.12981612	0.4932186	0.23465757	0.0028448636	0.79854451	0.080936626	0.042996201	0.42385618	0.28358669	-0.030440333	0.72248951	0.040023433	0.068391542	0.8045392	0.39205253	-0.12204518	0.86882892	0.4376716	0.16597679	0.81354841	0.38182438	0.00099255788	0.83417883	0.43058256	0.042751191	0.71227759	0.77827732	-0.10982891	0.75873598	0.79801517	0.22944105	0.79221453	0.83292267	-0.081571124	0.83476066	0.85230751	0.16210401	0.62935727	0.91516554	0.072153153	0.74310504	1.3288603	-0.12828986	0.7596577	1.3034678	0.23221079	0.67829173	1.3557016	0.055408411	0.73229086	1.0025149	-0.19776038	0.67864893	0.99418367	0.29406721	0.95357845	0.88523162	-0.17744942	0.83066402	0.80902042	0.34602585
337	1.344	0.48824037	0.097778727	-0.043713526	0.91245722	0.035517495	0.11219106	0.48459046	0.227194	-0.078748822	0.77528747	0.06102408	0.12987688	0.5065784	0.23596869	0.002784157	0.79858027	0.081078117	0.043009572	0.43639617	0.28417265	-0.030093164	0.72248151	0.040210186	0.068388826	0.8166606	0.39528154	-0.12214997	0.86988391	0.4377572	0.16609562	0.82567631	0.38500388	0.0010933534	0.83510551	0.43082813	0.042747209	0.71913723	0.7804957	-0.10990478	0.76388327	0.79931915	0.22971552	0.79860991	0.83497892	-0.080931627	0.84018201	0.85395887	0.16295695	0.63528278	0.91667004	0.072228233	0.74857133	1.330611	-0.12824137	0.76569417	1.3057103	0.23211476	0.68392864	1.357466	0.055448718	0.73583269	1.0046251	-0.19740672	0.68705057	0.99572391	0.29471052	0.9546759	0.8829927	-0.17838672	0.84338069	0.81347038	0.34469208
338	1.348	0.50367601	0.098945124	-0.044354752	0.91244804	0.035513539	0.11221957	0.49781836	0.228296	-0.078757116	0.77526209	0.061111735	0.12991198	0.51997856	0.23705575	0.0027370607	0.79860935	0.08123166	0.043040168	0.44893814	0.28447727	-0.029711288	0.7224535	0.040423254	0.068423908	0.82869996	0.39857843	-0.12223115	0.8708831	0.43780767	0.16619685	0.83748615	0.38829741	0.0012693498	0.83573282	0.4310642	0.04279798	0.72608996	0.78268897	-0.11002961	0.76874467	0.80057863	0.22997011	0.80428392	0.83702186	-0.080346672	0.84560842	0.85562372	0.16374589	0.64098515	0.91826462	0.072382496	0.75404152	1.3323137	-0.1281963	0.77173031	1.3079303	0.23201915	0.68955481	1.3591975	0.055493937	0.73941773	1.006744	-0.19714212	0.69534729	0.99726962	0.29533572	0.95568802	0.88080742	-0.17939672	0.85602037	0.81806062	0.34330087
339	1.352	0.5192934	0.099942286	-0.045078289	0.91244939	0.035509074	0.11224969	0.51112999	0.22917414	-0.078783014	0.775277	0.061180335	0.12993166	0.5334194	0.23791454	0.0026973683	0.7986453	0.081395535	0.043086034	0.46148476	0.28448711	-0.029313737	0.72241918	0.040658596	0.068490356	0.84065204	0.40193447	-0.12228374	0.87187361	0.43784869	0.16631206	0.84900188	0.3916855	0.0014991979	0.83624759	0.43127979	0.042904443	0.73311774	0.7848103	-0.11013052	0.7734394	0.8017979	0.23019154	0.80938718	0.83905442	-0.079753704	0.8510388	0.85728604	0.16447545	0.64674994	0.91986388	0.072516133	0.75951276	1.3339567	-0.12815331	0.77776187	1.3101178	0.23192291	0.6951805	1.3608789	0.055541328	0.74299539	1.0088555	-0.19690878	0.7034206	0.99878647	0.29587827	0.95658334	0.87867804	-0.18050188	0.86856727	0.82274987	0.34186043
